<svg width="120" height="120" viewBox="0 0 120 120" fill="none" xmlns="http://www.w3.org/2000/svg">
<path fill-rule="evenodd" clip-rule="evenodd" d="M91.4062 0C108.75 0 120 11.25 120 28.5938V91.4062C120 108.75 108.75 120 91.4062 120H28.5938C11.25 120 0 108.75 0 91.4062V28.5938C0 11.25 11.25 0 28.5938 0H91.4062Z" fill="url(#paint0_linear_1:87)"/>
<path d="M86.3208 17.9604C60.144 5.52722 16.555 16.7433 10.6243 48.4985C5.58223 75.4961 31.981 96.8705 57.3444 94.8228C57.3465 94.8854 57.3444 94.9455 57.3538 95.0107C58.9661 105.877 69.3478 110.9 79.3594 107.439C80.141 107.168 80.6548 106.404 80.4225 105.566C79.255 101.363 77.4093 97.402 76.3755 93.1713C85.44 90.9419 93.9745 89.7583 100.621 82.3567C106.888 75.3781 109.625 65.779 109.971 56.5798C110.594 40.0386 101.117 24.9881 86.3208 17.9604ZM97.6544 81.0666C91.5477 87.8708 82.4378 88.4237 74.1497 90.5691C73.2935 90.7905 72.9254 91.6447 73.0794 92.4539C73.9028 96.7823 75.737 100.772 77.0548 104.948C69.0361 106.995 61.5641 102.987 60.2489 94.2124C60.1868 93.7994 59.9993 93.5206 59.7524 93.3457C59.6626 93.2512 59.5461 93.1724 59.3718 93.1374C47.2837 90.7116 35.6828 90.2005 25.8075 81.8033C17.3596 74.6195 12.7869 63.4712 13.2276 52.4875C13.9784 33.757 31.7774 21.8846 48.2621 17.7897C63.7126 13.9521 81.8625 16.0385 94.2523 26.6536C109.718 39.9039 111.19 65.9842 97.6544 81.0666Z" fill="white"/>
<path d="M72.3995 25.8679C63.2551 21.9797 51.6537 26.1602 46.1944 34.2019C44.8281 36.2147 43.3082 40.6829 43.4283 44.3153C43.3442 44.6615 43.2815 45.0332 43.2528 45.4577C43.1072 47.6177 43.3938 50.0069 44.0715 52.0646C44.2412 52.5799 44.6834 52.9615 45.2447 52.9579C47.1609 52.9454 49.099 52.7684 51.0099 52.629C52.4134 52.5266 54.6005 52.607 55.6234 51.4939C55.9993 51.0845 56.0489 50.3713 55.7455 49.9082C55.9993 49.43 56.0431 48.8295 55.733 48.3998C51.0428 41.9031 63.8676 36.3765 65.6104 43.7566C66.7392 48.5361 61.1505 51.3477 59.8635 55.6129C58.3911 60.492 59.3674 66.6603 60.2566 71.5682C60.419 72.4626 61.3766 72.7477 62.1404 72.6381C64.586 72.2882 67.03 71.9332 69.4688 71.539C70.1105 71.4361 70.6212 70.6838 70.5935 70.0619C70.499 67.9573 70.1043 65.8698 69.8975 63.773C69.5774 60.5265 70.8953 59.2985 73.5158 57.6068C77.3246 55.1471 79.8386 52.5543 81.2958 48.1925C84.0135 40.0538 80.5523 29.3352 72.3995 25.8679Z" fill="white"/>
<path d="M71.1871 76.6395C71.0169 76.0166 70.4363 75.5822 69.7936 75.5786C68.4826 75.5708 67.1721 75.5634 65.8605 75.5561C64.9797 75.5509 63.6566 75.3275 62.8985 75.884C62.6396 76.0741 62.4709 76.3069 62.3702 76.5518C61.989 76.5664 61.6199 76.8724 61.6162 77.3C61.504 78.445 61.5776 80.6327 61.8752 82.1515C61.9937 82.7535 62.6218 83.1462 63.1977 83.1592C65.6537 83.2119 68.104 83.1467 70.5371 82.7901C71.1542 82.6992 71.5766 81.9933 71.5798 81.4211C71.5881 79.8323 71.6106 78.1834 71.1871 76.6395Z" fill="white"/>
<defs>
<linearGradient id="paint0_linear_1:87" x1="-3.7998e-07" y1="120" x2="2.48104e-06" y2="0" gradientUnits="userSpaceOnUse">
<stop stop-color="#FF5656"/>
<stop offset="1" stop-color="#FFA450"/>
</linearGradient>
</defs>
</svg>
